<?xml version="1.0" encoding="UTF-8"?>
<svg id="Layer_2" data-name="Layer 2" xmlns="http://www.w3.org/2000/svg" xmlns:xlink="http://www.w3.org/1999/xlink" viewBox="0 0 597.43 571.73">
  <defs>
    <style>
      .cls-1, .cls-2 {
        fill: #fff;
      }

      .cls-2 {
        stroke-width: 0px;
      }

      .cls-3 {
        clip-path: url(#clippath);
      }
    </style>
    <clipPath id="clippath">
      <path class="cls-2" d="m0,202.01v88.89l47.93,27.67,8.74-15.15-39.18-22.62v-68.69l39.18-22.62-8.74-15.15L0,202.01Zm509.59,122.92c-.97-6.37,3.42-12.34,9.78-13.31.6-.09,1.19-.14,1.79-.14,2.47,0,4.87.78,6.89,2.27,2.51,1.85,4.16,4.56,4.63,7.65h0c.47,3.09-.29,6.17-2.14,8.68-1.85,2.51-4.57,4.16-7.65,4.63-.6.09-1.19.13-1.77.13-5.68,0-10.66-4.15-11.54-9.92m31.18-135.44l39.18,22.62v68.69l-38,21.94c-1.09-1.1-2.26-2.13-3.54-3.07-6.28-4.61-13.98-6.51-21.68-5.34-15.9,2.43-26.86,17.34-24.43,33.24,2.2,14.41,14.66,24.77,28.82,24.77,1.46,0,2.93-.11,4.42-.34,7.7-1.18,14.49-5.28,19.1-11.56,4.62-6.28,6.51-13.98,5.33-21.68-.02-.14-.05-.28-.08-.42l47.55-27.45v-88.89l-47.93-27.67-8.74,15.15h0ZM68.23,83.83v88.89l47.92,27.67,8.75-15.15h0l-35.79-20.66-3.39-1.96v-68.69l59.49-34.35,44.83,25.88,8.75-15.15-53.58-30.93-76.98,44.44h0Zm372.86,120.8c0-6.44,5.24-11.68,11.68-11.68s11.68,5.24,11.68,11.68-5.24,11.68-11.68,11.68-11.68-5.24-11.68-11.68m-67.81-117.2c0-6.44,5.24-11.68,11.68-11.68s11.68,5.24,11.68,11.68-5.24,11.68-11.68,11.68-11.68-5.24-11.68-11.68m31.97-20.92c-5.25-5.1-12.41-8.24-20.29-8.24-16.08,0-29.17,13.09-29.17,29.17s13.08,29.17,29.17,29.17,29.17-13.09,29.17-29.17c0-1.9-.19-3.75-.53-5.54l38.63-22.3,59.49,34.35v68.69l-3.39,1.96-34.49,19.91c-5.31-5.55-12.79-9.02-21.06-9.02-16.08,0-29.17,13.09-29.17,29.17s13.08,29.17,29.17,29.17,29.17-13.09,29.17-29.17c0-1.51-.11-2.99-.34-4.44l47.6-27.48v-88.89l-76.98-44.44-46.97,27.12v-.02ZM164.44,28.29l8.75,15.15,40.25-23.24,59.49,34.35v68.69l-59.49,34.35-47.37-27.35-8.75,15.15,47.37,27.35v68.68l-59.49,34.35-39.18-22.62-8.75,15.15,47.93,27.67,76.98-44.44v-78.78l50.74-29.3v137.37l-39.18,22.62,8.75,15.15,30.44-17.57v127.29l-50.74-29.3h0l-68.23-39.4v-37.01h-17.49v37.01l-59.49,34.35-59.49-34.34v-41.84H0v51.94l68.23,39.39v78.79l47.92,27.67,8.75-15.15-39.18-22.62v-68.69l59.49-34.35,59.49,34.34v53.32h17.49v-43.22l50.74,29.3v68.69l-59.49,34.34-59.49-34.34v-37.02h-17.49v47.12l76.98,44.44,76.98-44.44V44.44L213.44,0l-49,28.29Zm208.42,454.53c0-6.44,5.24-11.68,11.68-11.68s11.68,5.24,11.68,11.68-5.24,11.68-11.68,11.68-11.68-5.24-11.68-11.68m67.69-23.98c0-6.44,5.24-11.68,11.68-11.68s11.68,5.24,11.68,11.68-5.24,11.68-11.68,11.68-11.68-5.24-11.68-11.68m-72.35-136.12c-.97-6.37,3.42-12.34,9.78-13.31.6-.09,1.2-.14,1.79-.14,2.47,0,4.87.78,6.89,2.27,2.52,1.85,4.16,4.56,4.63,7.65h0c.47,3.09-.29,6.17-2.14,8.68-1.85,2.51-4.56,4.16-7.65,4.63-.59.09-1.18.13-1.77.13-5.67,0-10.66-4.14-11.54-9.92m72.89-196.19c0-6.44,5.24-11.68,11.68-11.68s11.68,5.24,11.68,11.68-5.24,11.68-11.68,11.68-11.68-5.24-11.68-11.68m-134.07-82.09v482.82l76.98,44.44,76.98-44.44v-40.59c11.82-3.72,20.42-14.79,20.42-27.83,0-16.08-13.09-29.17-29.17-29.17s-29.17,13.09-29.17,29.17c0,13.04,8.6,24.1,20.42,27.83v30.49l-59.49,34.34-59.49-34.34v-68.69l50.88-29.38.33,35.92c-11.79,3.75-20.35,14.79-20.35,27.81,0,16.08,13.08,29.17,29.17,29.17s29.17-13.09,29.17-29.17c0-13.06-8.63-24.15-20.49-27.85l-.43-45.92,59.44-34.32,59.49,34.35v68.69l-39.18,22.62,8.74,15.15,47.93-27.67v-78.79l68.23-39.39v-51.94h-17.49v41.84l-59.48,34.34-59.49-34.35v-37.01h-17.49v37.01l-68.28,39.42h0l-50.7,29.27v-127.29l26.45,15.27c-.48,2.94-.52,6-.05,9.1,2.2,14.42,14.66,24.77,28.82,24.77,1.46,0,2.93-.11,4.42-.33,7.7-1.18,14.49-5.28,19.1-11.56,4.61-6.28,6.51-13.98,5.33-21.68-1.17-7.7-5.28-14.48-11.55-19.1-6.28-4.61-13.97-6.51-21.68-5.33-6.52.99-12.21,4.1-16.49,8.5l-34.35-19.83v-137.37l50.74,29.3v78.78l76.98,44.44,47.93-27.67-8.75-15.15-39.18,22.62-59.49-34.35v-68.68l41.31-23.85c5.07,4.26,11.6,6.83,18.72,6.83,16.08,0,29.17-13.09,29.17-29.17s-13.09-29.17-29.17-29.17-29.17,13.09-29.17,29.17c0,2.63.35,5.17,1.01,7.6l-40.61,23.45-59.49-34.35V54.54l59.49-34.35,40.25,23.24,8.75-15.15L384,0l-76.98,44.44h0Z"/>
    </clipPath>
  </defs>
  <g id="Layer_2-2" data-name="Layer 2">
    <g id="Layer_1-2" data-name="Layer 1-2">
      <g>
        <path class="cls-1" d="m0,202.01v88.89l47.93,27.67,8.74-15.15-39.18-22.62v-68.69l39.18-22.62-8.74-15.15L0,202.01Zm509.59,122.92c-.97-6.37,3.42-12.34,9.78-13.31.6-.09,1.19-.14,1.79-.14,2.47,0,4.87.78,6.89,2.27,2.51,1.85,4.16,4.56,4.63,7.65h0c.47,3.09-.29,6.17-2.14,8.68-1.85,2.51-4.57,4.16-7.65,4.63-.6.09-1.19.13-1.77.13-5.68,0-10.66-4.15-11.54-9.92m31.18-135.44l39.18,22.62v68.69l-38,21.94c-1.09-1.1-2.26-2.13-3.54-3.07-6.28-4.61-13.98-6.51-21.68-5.34-15.9,2.43-26.86,17.34-24.43,33.24,2.2,14.41,14.66,24.77,28.82,24.77,1.46,0,2.93-.11,4.42-.34,7.7-1.18,14.49-5.28,19.1-11.56,4.62-6.28,6.51-13.98,5.33-21.68-.02-.14-.05-.28-.08-.42l47.55-27.45v-88.89l-47.93-27.67-8.74,15.15h0ZM68.23,83.83v88.89l47.92,27.67,8.75-15.15h0l-35.79-20.66-3.39-1.96v-68.69l59.49-34.35,44.83,25.88,8.75-15.15-53.58-30.93-76.98,44.44h0Zm372.86,120.8c0-6.44,5.24-11.68,11.68-11.68s11.68,5.24,11.68,11.68-5.24,11.68-11.68,11.68-11.68-5.24-11.68-11.68m-67.81-117.2c0-6.44,5.24-11.68,11.68-11.68s11.68,5.24,11.68,11.68-5.24,11.68-11.68,11.68-11.68-5.24-11.68-11.68m31.97-20.92c-5.25-5.1-12.41-8.24-20.29-8.24-16.08,0-29.17,13.09-29.17,29.17s13.08,29.17,29.17,29.17,29.17-13.09,29.17-29.17c0-1.9-.19-3.75-.53-5.54l38.63-22.3,59.49,34.35v68.69l-3.39,1.96-34.49,19.91c-5.31-5.55-12.79-9.02-21.06-9.02-16.08,0-29.17,13.09-29.17,29.17s13.08,29.17,29.17,29.17,29.17-13.09,29.17-29.17c0-1.51-.11-2.99-.34-4.44l47.6-27.48v-88.89l-76.98-44.44-46.97,27.12v-.02ZM164.44,28.29l8.75,15.15,40.25-23.24,59.49,34.35v68.69l-59.49,34.35-47.37-27.35-8.75,15.15,47.37,27.35v68.68l-59.49,34.35-39.18-22.62-8.75,15.15,47.93,27.67,76.98-44.44v-78.78l50.74-29.3v137.37l-39.18,22.62,8.75,15.15,30.44-17.57v127.29l-50.74-29.3h0l-68.23-39.4v-37.01h-17.49v37.01l-59.49,34.35-59.49-34.34v-41.84H0v51.94l68.23,39.39v78.79l47.92,27.67,8.75-15.15-39.18-22.62v-68.69l59.49-34.35,59.49,34.34v53.32h17.49v-43.22l50.74,29.3v68.69l-59.49,34.34-59.49-34.34v-37.02h-17.49v47.12l76.98,44.44,76.98-44.44V44.44L213.44,0l-49,28.29Zm208.42,454.53c0-6.44,5.24-11.68,11.68-11.68s11.68,5.24,11.68,11.68-5.24,11.68-11.68,11.68-11.68-5.24-11.68-11.68m67.69-23.98c0-6.44,5.24-11.68,11.68-11.68s11.68,5.24,11.68,11.68-5.24,11.68-11.68,11.68-11.68-5.24-11.68-11.68m-72.35-136.12c-.97-6.37,3.42-12.34,9.78-13.31.6-.09,1.2-.14,1.79-.14,2.47,0,4.87.78,6.89,2.27,2.52,1.85,4.16,4.56,4.63,7.65h0c.47,3.09-.29,6.17-2.14,8.68-1.85,2.51-4.56,4.16-7.65,4.63-.59.09-1.18.13-1.77.13-5.67,0-10.66-4.14-11.54-9.92m72.89-196.19c0-6.44,5.24-11.68,11.68-11.68s11.68,5.24,11.68,11.68-5.24,11.68-11.68,11.68-11.68-5.24-11.68-11.68m-134.07-82.09v482.82l76.98,44.44,76.98-44.44v-40.59c11.82-3.72,20.42-14.79,20.42-27.83,0-16.08-13.09-29.17-29.17-29.17s-29.17,13.09-29.17,29.17c0,13.04,8.6,24.1,20.42,27.83v30.49l-59.49,34.34-59.49-34.34v-68.69l50.88-29.38.33,35.92c-11.79,3.75-20.35,14.79-20.35,27.81,0,16.08,13.08,29.17,29.17,29.17s29.17-13.09,29.17-29.17c0-13.06-8.63-24.15-20.49-27.85l-.43-45.92,59.44-34.32,59.49,34.35v68.69l-39.18,22.62,8.74,15.15,47.93-27.67v-78.79l68.23-39.39v-51.94h-17.49v41.84l-59.48,34.34-59.49-34.35v-37.01h-17.49v37.01l-68.28,39.42h0l-50.7,29.27v-127.29l26.45,15.27c-.48,2.94-.52,6-.05,9.1,2.2,14.42,14.66,24.77,28.82,24.77,1.46,0,2.93-.11,4.42-.33,7.7-1.18,14.49-5.28,19.1-11.56,4.61-6.28,6.51-13.98,5.33-21.68-1.17-7.7-5.28-14.48-11.55-19.1-6.28-4.61-13.97-6.51-21.68-5.33-6.52.99-12.21,4.1-16.49,8.5l-34.35-19.83v-137.37l50.74,29.3v78.78l76.98,44.44,47.93-27.67-8.75-15.15-39.18,22.62-59.49-34.35v-68.68l41.31-23.85c5.07,4.26,11.6,6.83,18.72,6.83,16.08,0,29.17-13.09,29.17-29.17s-13.09-29.17-29.17-29.17-29.17,13.09-29.17,29.17c0,2.63.35,5.17,1.01,7.6l-40.61,23.45-59.49-34.35V54.54l59.49-34.35,40.25,23.24,8.75-15.15L384,0l-76.98,44.44h0Z"/>
        <g class="cls-3">
          <rect class="cls-2" x="-51.09" y="-26.93" width="696.58" height="617.64"/>
        </g>
      </g>
    </g>
  </g>
</svg>